<svg width="674" height="562" viewBox="0 0 674 562" fill="none" xmlns="http://www.w3.org/2000/svg">
<path d="M128.831 102.395C147.645 112.862 165.711 124.742 181.991 138.889C204.858 159.075 223.991 183.249 239.658 209.369C242.031 213.569 244.218 217.915 247.298 221.675C255.191 218.942 263.591 218.915 271.818 218.129C274.418 206.875 277.365 195.609 282.285 185.129C293.778 161.022 311.698 140.555 331.698 123.115C334.991 131.595 340.138 139.329 342.538 148.169C341.111 148.302 339.698 148.435 338.285 148.569C327.231 158.075 315.698 167.195 306.178 178.329C297.685 187.129 291.271 197.675 285.365 208.315C282.311 214.102 278.405 219.875 278.605 226.715C266.298 228.609 254.151 231.649 241.778 232.849C238.765 224.182 232.058 217.542 227.151 209.955C213.058 187.675 194.978 168.142 175.271 150.729C170.391 146.729 166.205 141.889 160.805 138.555C154.458 133.955 148.311 129.022 141.151 125.715C136.325 118.329 133.338 109.955 128.831 102.395Z" fill="#E8EBFD"/>
<path d="M530.325 111.782C535.231 109.115 539.618 105.569 544.711 103.222C539.591 110.529 536.111 118.769 531.978 126.622C524.845 127.409 520.045 133.142 514.591 137.155C505.818 143.849 497.671 151.302 489.245 158.435C478.058 168.689 468.085 180.155 457.871 191.369C451.418 199.382 445.631 207.942 440.458 216.835C437.485 221.995 433.671 226.715 431.791 232.449C416.498 228.995 400.885 227.195 385.471 224.342C386.098 223.329 386.738 222.315 387.365 221.315C388.885 219.902 391.111 220.009 393.031 219.609C404.485 218.182 416.244 218.075 427.524 220.729C450.378 175.555 486.805 137.529 530.325 111.782Z" fill="#E8EBFD"/>
<path d="M386.538 176.342C398.098 175.302 409.738 175.435 421.338 175.782C418.178 181.009 412.831 184.462 409.151 189.342L408.778 189.275C398.725 187.862 388.418 188.182 378.378 189.622C366.378 190.222 354.418 192.835 343.311 197.409C343.271 193.875 343.205 190.342 343.111 186.809C357.111 181.675 371.658 177.742 386.538 176.342Z" fill="#E8EBFD"/>
<path d="M420.191 325.849C427.538 323.089 435.645 330.969 433.671 338.422C432.765 346.329 421.938 350.409 416.365 344.475C410.071 339.382 412.485 328.115 420.191 325.849Z" fill="#E8EBFD"/>
<path d="M242.925 327.062C249.405 322.795 258.831 328.289 259.351 335.782C260.858 343.715 250.938 349.582 244.218 345.955C237.071 342.569 235.885 331.235 242.925 327.062Z" fill="#E8EBFD"/>
<path d="M7.39135 0.795265C10.2313 -1.04474 13.6847 0.808629 16.6713 1.36863C50.178 12.4886 82.578 26.7419 113.845 43.0619C155.765 64.9286 196.618 90.5419 228.965 125.462C237.631 134.942 245.498 145.102 253.311 155.275C264.405 134.302 279.605 115.782 296.338 99.0886C308.191 87.7953 320.191 76.542 333.685 67.2353C337.525 64.0086 341.231 69.1953 344.058 71.4486C361.578 89.8886 376.391 111.355 385.325 135.289C402.045 134.449 418.925 134.102 435.525 136.662C451.231 116.569 471.045 100.169 491.351 84.9286C512.871 69.1686 536.045 55.8086 559.565 43.2753C583.151 31.462 606.831 19.662 631.631 10.5686C641.018 6.87529 650.405 3.10193 660.138 0.381935C661.925 -0.218065 663.765 0.421963 665.578 0.701963C667.618 3.64863 669.031 6.99527 669.405 10.5953C675.818 48.5019 674.925 87.782 665.458 125.102C654.285 171.569 629.831 214.475 596.778 248.849C584.991 261.569 571.098 272.035 557.311 282.435C574.405 296.062 592.085 308.969 608.805 323.075C596.751 334.555 582.871 343.955 568.485 352.275C581.778 365.675 596.911 377.222 609.685 391.169C615.591 397.649 622.218 403.622 626.925 411.089C600.525 429.849 570.485 444.115 538.525 450.022C528.765 467.315 516.538 483.222 502.485 497.222C488.325 511.569 471.485 522.995 453.778 532.515C402.818 559.875 342.231 567.489 285.698 556.235C237.591 545.889 191.418 522.035 158.951 484.502C149.538 473.782 141.591 461.875 134.525 449.502C116.525 446.915 99.3113 440.435 82.9647 432.635C70.2847 426.995 58.7247 419.222 47.018 411.875C46.0847 408.982 48.498 406.809 50.018 404.689C63.5114 388.942 78.418 374.462 94.1914 361.022C97.378 358.249 100.791 355.622 103.071 351.995C88.1114 344.342 74.4847 334.089 62.8447 321.995C64.1513 321.515 65.4847 321.102 66.7913 320.609C72.5247 314.062 80.1247 309.462 86.778 303.929C95.698 296.769 105.085 290.222 114.098 283.182C114.938 281.382 113.058 280.542 111.951 279.569C49.5114 234.049 7.0847 161.049 1.03136 83.742C-0.835304 61.0886 -0.12867 38.2353 2.83133 15.7153C3.68466 10.6219 3.91135 4.9286 7.39135 0.795265ZM44.7647 59.6353C45.498 97.6886 53.6314 136.315 72.978 169.435C84.698 188.609 98.7513 206.435 115.138 221.849C133.098 238.515 153.311 252.569 174.231 265.262C181.911 270.182 189.618 275.329 198.151 278.635C193.471 279.635 188.991 281.395 184.658 283.409C163.685 292.955 142.458 303.169 125.125 318.635C141.725 323.929 158.938 326.729 175.965 330.262C172.751 331.662 171.245 334.915 169.325 337.622C151.551 361.395 130.018 382.009 107.925 401.729C125.525 407.569 144.205 408.635 162.485 410.875C173.378 434.969 190.205 456.129 209.951 473.622C240.725 500.022 280.591 515.075 320.938 517.315C370.285 521.862 421.365 507.315 460.071 476.155C481.045 458.515 499.085 436.862 510.298 411.689C510.965 411.355 512.285 410.662 512.938 410.315C529.938 409.062 546.871 406.542 563.378 402.275C563.298 401.609 563.151 400.262 563.071 399.582C539.178 378.089 515.671 355.609 497.165 329.182C513.898 327.209 530.458 323.489 546.591 318.635C544.711 316.982 542.458 315.089 542.978 312.329C541.551 312.089 540.125 311.942 538.698 311.889C520.018 298.462 499.245 288.035 477.858 279.675C477.818 279.129 477.738 278.062 477.711 277.529C499.738 264.369 522.525 252.195 542.418 235.795C573.258 211.009 599.538 179.435 614.458 142.515C625.418 115.489 629.591 85.9686 628.538 56.9286C619.805 60.7019 611.831 65.9286 603.311 70.1019C583.911 81.3686 564.031 91.8753 544.711 103.222C539.618 105.569 535.231 109.115 530.325 111.782C486.805 137.529 450.378 175.555 427.525 220.729C416.245 218.075 404.485 218.182 393.031 219.609C391.111 220.009 388.885 219.902 387.365 221.315C392.325 209.315 400.885 199.409 408.778 189.275L409.151 189.342C412.831 184.462 418.178 181.009 421.338 175.782C409.738 175.435 398.098 175.302 386.538 176.342C371.658 177.742 357.111 181.675 343.111 186.809L341.338 186.929C341.365 176.542 342.498 166.209 343.765 155.915C344.191 153.289 343.605 150.675 343.178 148.115L342.538 148.169C340.138 139.329 334.991 131.595 331.698 123.115C311.698 140.555 293.778 161.022 282.285 185.129C277.365 195.609 274.418 206.875 271.818 218.129C263.591 218.915 255.191 218.942 247.298 221.675C244.218 217.915 242.031 213.569 239.658 209.369C223.991 183.249 204.858 159.075 181.991 138.889C165.711 124.742 147.645 112.862 128.831 102.395C115.165 95.5553 102.325 87.1686 88.658 80.3019C75.9914 72.9019 63.0447 66.0353 50.2714 58.8353C48.5914 57.9419 44.4313 56.1019 44.7647 59.6353Z" fill="#03021C"/>
<path d="M233.605 314.022C239.005 312.569 244.778 311.955 250.298 313.249C263.831 316.395 274.085 329.902 273.511 343.795C273.365 359.702 259.405 373.835 243.711 374.982C225.405 376.275 208.525 357.929 211.685 339.795C212.898 327.782 222.298 317.595 233.605 314.022ZM242.925 327.062C235.885 331.235 237.071 342.569 244.218 345.955C250.938 349.582 260.858 343.715 259.351 335.782C258.831 328.289 249.405 322.795 242.925 327.062Z" fill="#03021C"/>
<path d="M420.365 313.982C438.191 307.569 459.445 321.249 461.378 339.955C462.751 348.435 459.871 357.115 454.685 363.822C449.098 369.995 441.298 374.302 432.925 374.942C414.885 376.715 398.138 359.022 399.845 341.235C399.845 328.995 408.591 317.369 420.365 313.982ZM420.191 325.849C412.485 328.115 410.071 339.382 416.365 344.475C421.938 350.409 432.765 346.329 433.671 338.422C435.645 330.969 427.538 323.089 420.191 325.849Z" fill="#03021C"/>
<path d="M319.525 362.355C327.445 352.529 345.338 352.195 353.031 362.489C356.245 366.769 354.898 372.369 354.778 377.302C354.858 379.969 357.378 381.489 358.938 383.342C363.738 384.515 368.231 382.315 372.885 381.622C377.525 381.529 378.511 387.409 377.311 390.875C374.191 397.769 367.378 403.235 359.605 403.355C349.978 403.875 341.178 397.689 336.365 389.689C333.045 394.382 329.191 398.955 323.845 401.382C313.738 406.662 299.365 401.755 295.578 390.742C294.271 387.835 295.591 384.835 296.591 382.089C302.631 379.849 308.725 387.222 314.138 382.275C321.271 377.902 314.871 368.209 319.525 362.355Z" fill="#03021C"/>
<path d="M44.7645 59.6352C44.4312 56.1019 48.5912 57.9419 50.2712 58.8352C63.0445 66.0352 75.9912 72.9019 88.6579 80.3019C102.325 87.1686 115.165 95.5552 128.831 102.395C133.338 109.955 136.325 118.329 141.151 125.715C147.071 142.915 155.845 158.955 162.485 175.875C168.245 188.675 172.925 201.902 177.751 215.075C183.018 227.942 187.231 241.209 191.938 254.289C194.805 262.222 197.391 270.262 199.458 278.449C199.125 278.502 198.485 278.595 198.151 278.635C189.618 275.329 181.911 270.182 174.231 265.262C153.311 252.569 133.098 238.515 115.138 221.849C98.7512 206.435 84.6979 188.609 72.9779 169.435C53.6312 136.315 45.4979 97.6886 44.7645 59.6352Z" fill="#116E97"/>
<path d="M603.311 70.1019C611.831 65.9286 619.804 60.7019 628.538 56.9286C629.591 85.9686 625.418 115.489 614.458 142.515C599.538 179.435 573.258 211.009 542.418 235.795C522.524 252.195 499.738 264.369 477.711 277.529C477.738 278.062 477.818 279.129 477.858 279.675C476.351 279.115 474.844 278.569 473.351 278.035C477.671 260.182 484.618 243.142 491.111 226.009C499.578 202.129 509.018 178.609 519.311 155.462C523.778 145.955 527.191 135.969 531.978 126.622C536.111 118.769 539.591 110.529 544.711 103.222C564.031 91.8753 583.911 81.3686 603.311 70.1019Z" fill="#116E97"/>
<path d="M162.485 410.875C170.818 411.529 179.285 410.675 187.551 411.955C191.365 415.329 193.791 419.929 197.058 423.795C212.618 443.169 232.791 458.689 254.991 469.742C274.951 478.835 296.351 485.355 318.325 486.835C346.898 489.435 376.271 486.115 402.938 475.222C425.511 466.849 445.965 453.382 463.605 437.089C470.085 430.542 476.258 423.662 481.485 416.049C482.938 414.369 484.178 411.809 486.685 411.689C495.418 411.035 504.205 411.035 512.938 410.315C512.285 410.662 510.965 411.355 510.298 411.689C499.085 436.862 481.045 458.515 460.071 476.155C421.365 507.315 370.285 521.862 320.938 517.315C280.591 515.075 240.725 500.022 209.951 473.622C190.205 456.129 173.378 434.969 162.485 410.875Z" fill="#116E97"/>
<path d="M141.151 125.715C148.311 129.022 154.458 133.955 160.805 138.555C166.205 141.889 170.391 146.729 175.271 150.729C194.978 168.142 213.058 187.675 227.151 209.955C232.058 217.542 238.765 224.182 241.778 232.849C254.151 231.649 266.298 228.609 278.605 226.715C278.405 219.875 282.311 214.102 285.365 208.315C291.271 197.675 297.685 187.129 306.178 178.329C315.698 167.195 327.231 158.075 338.285 148.569C339.698 148.435 341.111 148.302 342.538 148.169L343.178 148.115C343.605 150.675 344.191 153.289 343.765 155.915C342.498 166.209 341.365 176.542 341.338 186.929L343.111 186.809C343.205 190.342 343.271 193.875 343.311 197.409C354.418 192.835 366.378 190.222 378.378 189.622C388.418 188.182 398.725 187.862 408.778 189.275C400.885 199.409 392.325 209.315 387.365 221.315C386.738 222.315 386.098 223.329 385.471 224.342C400.885 227.195 416.498 228.995 431.791 232.449C433.671 226.715 437.485 221.995 440.458 216.835C445.631 207.942 451.418 199.382 457.871 191.369C468.085 180.155 478.058 168.689 489.245 158.435C497.671 151.302 505.818 143.849 514.591 137.155C520.045 133.142 524.845 127.409 531.978 126.622C527.191 135.969 523.778 145.955 519.311 155.462C509.018 178.609 499.578 202.129 491.111 226.009C484.618 243.142 477.671 260.182 473.351 278.035C474.845 278.569 476.351 279.115 477.858 279.675C499.245 288.035 520.018 298.462 538.698 311.889C540.125 311.942 541.551 312.089 542.978 312.329C542.458 315.089 544.711 316.982 546.591 318.635C530.458 323.489 513.898 327.209 497.165 329.182C515.671 355.609 539.178 378.089 563.071 399.582C563.151 400.262 563.298 401.609 563.378 402.275C546.871 406.542 529.938 409.062 512.938 410.315C504.205 411.035 495.418 411.035 486.685 411.689C484.178 411.809 482.938 414.369 481.485 416.049C476.258 423.662 470.085 430.542 463.605 437.089C445.965 453.382 425.511 466.849 402.938 475.222C376.271 486.115 346.898 489.435 318.325 486.835C296.351 485.355 274.951 478.835 254.991 469.742C232.791 458.689 212.618 443.169 197.058 423.795C193.791 419.929 191.365 415.329 187.551 411.955C179.285 410.675 170.818 411.529 162.485 410.875C144.205 408.635 125.525 407.569 107.925 401.729C130.018 382.009 151.551 361.395 169.325 337.622C171.245 334.915 172.751 331.662 175.965 330.262C158.938 326.729 141.725 323.929 125.125 318.635C142.458 303.169 163.685 292.955 184.658 283.409C188.991 281.395 193.471 279.635 198.151 278.635C198.485 278.595 199.125 278.502 199.458 278.449C197.391 270.262 194.805 262.222 191.938 254.289C187.231 241.209 183.018 227.942 177.751 215.075C172.925 201.902 168.245 188.675 162.485 175.875C155.845 158.955 147.071 142.915 141.151 125.715ZM233.605 314.022C222.298 317.595 212.898 327.782 211.685 339.795C208.525 357.929 225.405 376.275 243.711 374.982C259.405 373.835 273.365 359.702 273.511 343.795C274.085 329.902 263.831 316.395 250.298 313.249C244.778 311.955 239.005 312.569 233.605 314.022ZM420.365 313.982C408.591 317.369 399.845 328.995 399.845 341.235C398.138 359.022 414.885 376.715 432.925 374.942C441.298 374.302 449.098 369.995 454.685 363.822C459.871 357.115 462.751 348.435 461.378 339.955C459.445 321.249 438.191 307.569 420.365 313.982ZM319.525 362.355C314.871 368.209 321.271 377.902 314.138 382.275C308.725 387.222 302.631 379.849 296.591 382.089C295.591 384.835 294.271 387.835 295.578 390.742C299.365 401.755 313.738 406.662 323.845 401.382C329.191 398.955 333.045 394.382 336.365 389.689C341.178 397.689 349.978 403.875 359.605 403.355C367.378 403.235 374.191 397.769 377.311 390.875C378.511 387.409 377.525 381.529 372.885 381.622C368.231 382.315 363.738 384.515 358.938 383.342C357.378 381.489 354.858 379.969 354.778 377.302C354.898 372.369 356.245 366.769 353.031 362.489C345.338 352.195 327.445 352.529 319.525 362.355Z" fill="#47CEEF"/>
</svg>
